<?xml version="1.0" encoding="UTF-8"?>
<svg xmlns="http://www.w3.org/2000/svg" viewBox="0 0 1600 500" role="img">
  <rect width="1600" height="500" fill="#f4f4f4"/>

  <defs>
    <marker id="arr" markerWidth="12" markerHeight="12" refX="10" refY="6" orient="auto">
      <path d="M0 0 L12 6 L0 12 z" fill="#2a2a2a"/>
    </marker>
  </defs>

  <rect x="60" y="48" width="440" height="400" rx="10" fill="#fafafa" stroke="#e4e4e4"/>
  <rect x="580" y="48" width="440" height="400" rx="10" fill="#fafafa" stroke="#e4e4e4"/>
  <rect x="1100" y="48" width="440" height="400" rx="10" fill="#fafafa" stroke="#e4e4e4"/>
  <text font-family="ui-sans-serif, system-ui, Microsoft JhengHei, PingFang TC, sans-serif" x="280" y="92" text-anchor="middle" font-size="20" font-weight="700" fill="#c13b3b">&#x4F60;</text>
  <text font-family="ui-sans-serif, system-ui, Microsoft JhengHei, PingFang TC, sans-serif" x="800" y="92" text-anchor="middle" font-size="20" font-weight="700" fill="#c13b3b">&#x8DEF;&#x4E0A;</text>
  <text font-family="ui-sans-serif, system-ui, Microsoft JhengHei, PingFang TC, sans-serif" x="1320" y="92" text-anchor="middle" font-size="20" font-weight="700" fill="#c13b3b">&#x5C0D;&#x65B9;&#x4F3A;&#x670D;&#x5668;</text>
  <rect x="250" y="114" width="60" height="108" rx="10" fill="none" stroke="#2a2a2a" stroke-width="3"/><rect x="258" y="124" width="44" height="76" fill="#2a2a2a"/><circle cx="280" cy="210" r="4" fill="#2a2a2a"/>
  <rect x="228" y="286" width="104" height="58" rx="6" fill="#c13b3b"/>
  <path d="M270 272 v-14 a10 10 0 0 1 20 0 v14" fill="none" stroke="#2a2a2a" stroke-width="3"/><rect x="264" y="272" width="32" height="24" rx="4" fill="#c13b3b"/>
  <text font-family="ui-sans-serif, system-ui, Microsoft JhengHei, PingFang TC, sans-serif" x="280" y="384" text-anchor="middle" font-size="17" fill="#2a2a2a">&#x628A;&#x8CC7;&#x6599;&#x5C01;&#x9032;&#x5305;&#x88F9;</text>
  <text font-family="ui-sans-serif, system-ui, Microsoft JhengHei, PingFang TC, sans-serif" x="280" y="412" text-anchor="middle" font-size="15" fill="#6b6b6b">&#x700F;&#x89BD;&#x5668;&#x4E0A;&#x7684;&#x5C0F;&#x9396;</text>
  <line x1="512" y1="230" x2="568" y2="230" stroke="#2a2a2a" stroke-width="4" marker-end="url(#arr)"/>
  <line x1="650" y1="230" x2="950" y2="230" stroke="#2a2a2a" stroke-width="4"/>
  <circle cx="680" cy="230" r="11" fill="#2a2a2a"/>
  <circle cx="920" cy="230" r="11" fill="#2a2a2a"/>
  <rect x="738" y="206" width="124" height="52" rx="6" fill="#c13b3b"/>
  <path d="M790 192 v-14 a10 10 0 0 1 20 0 v14" fill="none" stroke="#2a2a2a" stroke-width="3"/><rect x="784" y="192" width="32" height="24" rx="4" fill="#c13b3b"/>
  <text font-family="ui-sans-serif, system-ui, Microsoft JhengHei, PingFang TC, sans-serif" x="800" y="384" text-anchor="middle" font-size="17" fill="#2a2a2a">&#x904B;&#x5C07;&#x62C6;&#x4E0D;&#x958B;</text>
  <text font-family="ui-sans-serif, system-ui, Microsoft JhengHei, PingFang TC, sans-serif" x="800" y="412" text-anchor="middle" font-size="15" fill="#6b6b6b">&#x5496;&#x5561;&#x5EF3; Wi-Fi&#x3001;&#x5047;&#x57FA;&#x5730;&#x53F0;</text>
  <line x1="1032" y1="230" x2="1088" y2="230" stroke="#2a2a2a" stroke-width="4" marker-end="url(#arr)"/>
  <path d="M1230 176 l90 -44 90 44" fill="none" stroke="#2a2a2a" stroke-width="3"/>
  <rect x="1230" y="176" width="180" height="128" fill="none" stroke="#2a2a2a" stroke-width="3"/>
  <rect x="1270" y="228" width="100" height="48" rx="4" fill="#6b6b6b"/>
  <path d="M1330 214 v-10 a10 10 0 0 0 -20 -2" fill="none" stroke="#2a2a2a" stroke-width="3"/><rect x="1304" y="214" width="32" height="24" rx="4" fill="#6b6b6b"/>
  <text font-family="ui-sans-serif, system-ui, Microsoft JhengHei, PingFang TC, sans-serif" x="1320" y="384" text-anchor="middle" font-size="17" fill="#2a2a2a">&#x5009;&#x5EAB;&#x4E00;&#x5B9A;&#x6703;&#x62C6;</text>
  <text font-family="ui-sans-serif, system-ui, Microsoft JhengHei, PingFang TC, sans-serif" x="1320" y="412" text-anchor="middle" font-size="15" fill="#6b6b6b">&#x4E0D;&#x7136;&#x600E;&#x9EBC;&#x767B;&#x5165;&#x3001;&#x4E0B;&#x55AE;</text>
</svg>
